<svg xmlns="http://www.w3.org/2000/svg">
  <style>
    path {
      fill: currentColor;
    }
  </style>
  <defs>
    <symbol viewBox="0 0 24 24" id="icon-camera">
      <path d="M14.998 1.998l-6 .004L7.164 4H2v16h20V4h-5.158l-1.844-2.002zM12 7c2.8 0 5 2.2 5 5s-2.2 5-5 5-5-2.2-5-5 2.2-5 5-5zm0 2a3 3 0 0 0-3 3 3 3 0 0 0 3 3 3 3 0 0 0 3-3 3 3 0 0 0-3-3z"/>
    </symbol>
    <symbol viewBox="0 0 24 24" id="icon-chevron-down">
      <path d="M3 8v4l9 6 9-6V8l-9 6-9-6z"/>
    </symbol>
    <symbol viewBox="0 0 24 24" id="icon-collapse-arrow">
      <path d="M12 6.93L5.93 13l1.5 1.5L12 9.93l4.57 4.57 1.5-1.5L12 6.93z"/>
    </symbol>
    <symbol viewBox="0 0 24 24" id="icon-expand-arrow">
      <path d="M7.43 9.5L5.93 11 12 17.07 18.07 11l-1.5-1.5L12 14.07 7.43 9.5z"/>
    </symbol>
    <symbol viewBox="0 0 297.6 297.6" id="icon-logo">
      <path d="M160 204.5c-4 0-7 2.7-7 6.7s3 6.8 7 6.8c3.9 0 6.9-2.8 6.9-6.8s-3-6.7-7-6.7zm17.6 13.5c3.8 0 6.8-2.8 6.8-6.8s-3-6.7-6.8-6.7c-4 0-7 2.7-7 6.7s3 6.8 7 6.8zm85.3 54.6v-4h29v-34h-29v-4h28.8v-9H253v13h-8.6c-2.1-8.1-9.2-13-18.4-13h-25.8v13h-19.7l-3.9-13h-15.3l-3.8 13h-39v-4h27.8v-9h-37.8v13H73.2v-4H101v-9H63.2v13H43.5l-3.8-13H24.3l-3.8 13H5.3v34h5.2l-3.8 13h10.2l3.7-13h22.8l3.8 13h10.1l-3.8-13h9.7v13h10v-13h35.2v13h10v-13h29l-3.9 13h10.2l3.8-13h22.8l3.8 13h10.1l-3.8-13h9.7v13h10v-13h16.3l6.5 13H244l-7-13h16v13h39.4v-9H263zM31.6 229.9h.9l1.3 4.6h-3.5l1.3-4.6zm136.9 0h.8l1.4 4.6H167l1.4-4.6zm41.6.7h14.8c4 0 7 1.4 8.7 4H210v-4zM49.3 127.7v-9H11.5v60h10v-25.6h26.1v-8.9H21.5v-16.5zm7.4-9h9.9v60h-9.9zm66.2 21.9V139c0-13.1-8.4-21.6-23.3-21.6-15 0-24.4 8.7-24.4 24.3v13.8c0 15.6 9.5 24.3 24.4 24.3 14.7 0 23.3-8.5 23.3-21.5v-2H113v2.2c0 7-4.4 12.5-13.4 12.5s-14.4-5.9-14.4-15.4v-14c0-9.5 5.4-15.4 14.4-15.4 8.8 0 13.4 5.6 13.4 12.6v1.7h9.9zm52.4-21.9h-9.8v25.5H141v-25.5h-10v60h10v-25.6h24.5v25.6h9.8zm49.7 9v-9h-38.9v60h39.4v-9h-29.4V153h26.5v-9h-26.5v-16.3zm43.1 40.9l-17.5-49.9h-17v60h10v-49.9h.8l17.4 49.9h17v-60h-9.9v49.9zM11.5 75.8h19.8c11.6 0 19.3-4.3 22.7-12.8h10.6v12.8h10V63h10.7v12.8h39.4v-9H95.3V63h196.6V29H95.3v-4.2h28.9v-9H85.3V29H74.5V15.8h-9.9V29H54.1C50.8 20.2 43 15.8 31.3 15.8H11.5V29H5.3v34h6.2v12.8zm19.8-9h-9.8V63h21c-2.4 2.5-6.1 3.8-11.2 3.8zm-9.8-42h9.8c5.2 0 9 1.4 11.4 4.2H21.5v-4.2z"/>
    </symbol>
    <symbol viewBox="0 0 24 24" id="icon-folder-invoices">
      <path d="M22 6H12l-2-2H2v16h20V6z"/>
    </symbol>
    <symbol viewBox="0 0 24 24" id="icon-headphones">
      <path d="M11.382 2.021C6.605 2.342 3 6.53 3 11.319V21h5v-7H5v-2.756c0-3.557 2.551-6.732 6.079-7.184A7.007 7.007 0 0 1 19 11v3h-3v7h5V11c0-5.166-4.377-9.331-9.618-8.979z"/>
    </symbol>
    <symbol viewBox="0 0 24 24" id="icon-long-arrow-down">
      <path d="M11 1v18H8l4 4 4-4h-3V1h-2z"/>
    </symbol>
    <symbol viewBox="0 0 24 24" id="icon-menu">
      <path d="M2 5v2h20V5H2zm0 6v2h20v-2H2zm0 6v2h20v-2H2z"/>
    </symbol>
    <symbol viewBox="0 0 24 24" id="icon-play">
      <path d="M8 5v14l11-7L8 5z"/>
    </symbol>
    <symbol viewBox="0 0 24 24" id="icon-sound-surround">
      <path d="M23 4H1v16h22V4zM5.636 18.364c-3.509-3.509-3.509-9.22 0-12.729L7.05 7.05c-2.729 2.729-2.729 7.171 0 9.9l-1.414 1.414zm4.242-4.243l-1.414 1.414C7.52 14.591 7 13.336 7 12s.52-2.591 1.464-3.535l1.414 1.414C9.312 10.445 9 11.198 9 12s.312 1.555.878 2.121zM12 13a1 1 0 1 1 0-2 1 1 0 0 1 0 2zm2.122 1.121c.566-.566.878-1.319.878-2.121s-.312-1.555-.878-2.121l1.414-1.414C16.48 9.409 17 10.664 17 12s-.52 2.591-1.464 3.535l-1.414-1.414zm4.242 4.243L16.95 16.95c2.729-2.729 2.729-7.171 0-9.9l1.414-1.414c3.509 3.509 3.509 9.219 0 12.728z"/>
    </symbol>
    <symbol viewBox="0 0 24 24" id="icon-youtube-play">
      <path d="M21 5s-3-1-9-1-9 1-9 1-1 3-1 7 1 7 1 7 3 1 9 1 9-1 9-1 1-3 1-7-1-7-1-7zM10 15.464V8.536L16 12l-6 3.464z"/>
    </symbol>
  </defs>
</svg>
